<svg xmlns="http://www.w3.org/2000/svg" width="180" height="60" viewBox="0 0 180 60" fill="none"><path fill-rule="evenodd" clip-rule="evenodd" d="M23.24 7C10.3999 7 0 17.3999 0 30.24C0 40.5237 6.65245 49.2096 15.8903 52.2889C17.0523 52.4923 17.4881 51.7951 17.4881 51.185C17.4881 50.6331 17.459 48.8029 17.459 46.8566C11.62 47.9314 10.1094 45.4331 9.6446 44.1259C9.38315 43.4577 8.2502 41.3952 7.2625 40.8432C6.4491 40.4075 5.2871 39.3326 7.23345 39.3036C9.0636 39.2745 10.3708 40.9885 10.8066 41.6857C12.8982 45.2007 16.2389 44.213 17.5752 43.603C17.7786 42.0924 18.3886 41.0756 19.0568 40.4946C13.8859 39.9136 8.4826 37.9092 8.4826 29.0199C8.4826 26.4925 9.38315 24.4009 10.8647 22.7741C10.6323 22.1931 9.8189 19.811 11.0971 16.6155C11.0971 16.6155 13.0434 16.0055 17.4881 18.9976C19.3473 18.4747 21.3227 18.2133 23.2981 18.2133C25.2735 18.2133 27.2489 18.4747 29.1081 18.9976C33.5527 15.9764 35.4991 16.6155 35.4991 16.6155C36.7773 19.811 35.9639 22.1931 35.7315 22.7741C37.213 24.4009 38.1136 26.4635 38.1136 29.0199C38.1136 37.9382 32.6812 39.9136 27.5103 40.4946C28.3528 41.2209 29.079 42.6153 29.079 44.794C29.079 47.9024 29.05 50.4007 29.05 51.185C29.05 51.7951 29.4857 52.5213 30.6477 52.2889C35.2613 50.7314 39.2703 47.7664 42.1104 43.8111C44.9505 39.8557 46.4787 35.1094 46.48 30.24C46.48 17.3999 36.0801 7 23.24 7Z" fill="#AEAEAE"></path><path d="M108.341 41.4573H108.287C108.311 41.4573 108.327 41.4845 108.352 41.4872H108.368L108.341 41.4601V41.4573ZM108.352 41.4872C108.1 41.4899 107.465 41.6227 106.796 41.6227C104.681 41.6227 103.949 40.6467 103.949 39.3723V30.8832H108.26C108.504 30.8832 108.693 30.6662 108.693 30.368V25.7587C108.693 25.5147 108.477 25.2978 108.26 25.2978H103.949V19.5769C103.949 19.36 103.813 19.2244 103.569 19.2244H97.7126C97.4685 19.2244 97.333 19.36 97.333 19.5769V25.4605C97.333 25.4605 94.3776 26.1925 94.1878 26.2197C93.9709 26.2739 93.8354 26.4637 93.8354 26.6806V30.368C93.8354 30.6662 94.0523 30.8832 94.2963 30.8832H97.3059V39.7763C97.3059 46.392 101.915 47.0698 105.06 47.0698C106.497 47.0698 108.233 46.6089 108.504 46.4733C108.666 46.4191 108.748 46.2293 108.748 46.0395V41.9725C108.751 41.8572 108.713 41.7443 108.641 41.6547C108.568 41.565 108.465 41.5046 108.352 41.4845V41.4872ZM172.6 35.5195C172.6 30.612 170.62 29.9613 168.533 30.1782C166.906 30.2867 165.604 31.1001 165.604 31.1001V40.6439C165.604 40.6439 166.933 41.5658 168.912 41.62C171.705 41.7014 172.6 40.6982 172.6 35.5195ZM179.188 35.0857C179.188 44.3856 176.179 47.0427 170.919 47.0427C166.472 47.0427 164.086 44.7923 164.086 44.7923C164.086 44.7923 163.978 46.0395 163.842 46.2022C163.761 46.3649 163.625 46.4191 163.462 46.4191H159.45C159.178 46.4191 158.934 46.2022 158.934 45.9582L158.989 15.8353C158.989 15.5912 159.206 15.3743 159.45 15.3743H165.225C165.469 15.3743 165.686 15.5912 165.686 15.8353V26.057C165.686 26.057 167.909 24.62 171.163 24.62L171.135 24.5658C174.389 24.5658 179.188 25.7858 179.188 35.0857ZM155.545 25.2978H149.851C149.553 25.2978 149.391 25.5147 149.391 25.813V40.5626C149.391 40.5626 147.899 41.62 145.866 41.62C143.832 41.62 143.236 40.6982 143.236 38.6647V25.7858C143.236 25.5418 143.019 25.3249 142.775 25.3249H136.973C136.729 25.3249 136.512 25.5418 136.512 25.7858V39.6408C136.512 45.6057 139.847 47.0969 144.429 47.0969C148.198 47.0969 151.261 45.0092 151.261 45.0092C151.261 45.0092 151.397 46.0666 151.478 46.2293C151.533 46.3649 151.722 46.4733 151.912 46.4733H155.545C155.844 46.4733 156.006 46.2564 156.006 46.0124L156.06 25.7587C156.06 25.5147 155.844 25.2978 155.545 25.2978ZM91.2867 25.2707H85.5116C85.2675 25.2707 85.0506 25.5147 85.0506 25.813V45.7141C85.0506 46.2564 85.4031 46.4462 85.864 46.4462H91.0698C91.6121 46.4462 91.7476 46.2022 91.7476 45.7141V25.7316C91.7476 25.4876 91.5307 25.2707 91.2867 25.2707ZM88.4398 16.1064C86.3521 16.1064 84.6982 17.7603 84.6982 19.848C84.6982 21.9358 86.3521 23.5897 88.4398 23.5897C90.4733 23.5897 92.1272 21.9358 92.1272 19.848C92.1272 17.7603 90.4733 16.1064 88.4398 16.1064ZM133.15 15.4286H127.429C127.185 15.4286 126.968 15.6455 126.968 15.8895V26.9788H117.993V15.8895C117.993 15.6455 117.776 15.4286 117.532 15.4286H111.757C111.513 15.4286 111.296 15.6455 111.296 15.8895V46.0124C111.296 46.2564 111.54 46.4733 111.757 46.4733H117.532C117.776 46.4733 117.993 46.2564 117.993 46.0124V33.1336H126.968L126.914 46.0124C126.914 46.2564 127.131 46.4733 127.375 46.4733H133.15C133.394 46.4733 133.611 46.2564 133.611 46.0124V15.8895C133.611 15.6455 133.394 15.4286 133.15 15.4286ZM81.9868 28.7683V44.3314C81.9868 44.4398 81.9597 44.6296 81.8242 44.6838C81.8242 44.6838 78.435 47.0969 72.8496 47.0969C66.0984 47.0969 58.1 44.9821 58.1 31.0458C58.1 17.1096 65.0952 14.2356 71.9278 14.2627C77.8385 14.2627 80.2245 15.5912 80.6041 15.8353C80.7125 15.9708 80.7667 16.0793 80.7667 16.2148L79.628 21.041C79.628 21.285 79.384 21.5833 79.0857 21.5019C78.1096 21.2037 76.6455 20.6072 73.2021 20.6072C69.2165 20.6072 64.9325 21.746 64.9325 30.7205C64.9325 39.695 68.9995 40.7524 71.9278 40.7524C74.4222 40.7524 75.317 40.4542 75.317 40.4542V34.2181H71.3313C71.033 34.2181 70.8161 34.0012 70.8161 33.7572V28.7683C70.8161 28.5243 71.033 28.3074 71.3313 28.3074H81.4717C81.7699 28.3074 81.9868 28.5243 81.9868 28.7683Z" fill="#AEAEAE"></path></svg>