<svg xmlns="http://www.w3.org/2000/svg" width="180" height="60" viewBox="0 0 180 60" fill="none"><path d="M43.4914 38.067L44.6049 37.8378C45.5874 37.5758 45.8494 37.4448 45.8494 35.4798V20.0546C45.8494 18.0897 45.5546 17.9259 44.6049 17.6967L43.4914 17.4674V16.5504H61.2418L61.5693 23.0676H60.554C59.7353 21.2664 59.2113 20.3166 58.7201 19.5961C57.6721 18.0897 56.9843 17.9587 54.7246 17.9587C53.0543 17.9587 52.2356 18.1552 51.7443 18.2862V26.6374H52.6286C54.9211 26.6374 55.4451 26.3754 55.8381 25.6549C56.2966 24.8361 56.5586 24.2139 56.8533 23.1659H57.8358V31.6153H56.8533C56.5586 30.6001 56.2966 29.9451 55.8381 28.9953C55.4451 28.1766 55.0193 28.0128 52.6286 28.0128H51.7443V34.3008C51.7443 37.2155 51.8426 37.543 55.0193 37.543C57.6393 37.543 58.1633 37.2155 59.244 35.6108C59.8335 34.7266 60.4558 33.3511 61.3073 31.2878H62.3553L61.8968 38.984H43.5241L43.4914 38.067ZM65.1063 25.7859C64.353 23.9519 63.9928 23.4934 63.174 23.2314L62.5518 23.0349V22.1834H72.2785V23.0349L71.3942 23.2641C70.7065 23.4606 70.379 23.7881 70.379 24.5741C70.379 25.0326 70.5427 25.5894 70.8047 26.3099L73.523 33.7768H73.6867L76.3067 26.3099C76.6014 25.5239 76.7324 24.9671 76.7324 24.5086C76.7324 23.7881 76.4049 23.4279 75.7172 23.2641L74.833 23.0349V22.1834H80.8262V23.0349L80.2039 23.2314C79.3524 23.5261 78.9922 24.0174 78.2062 26.1461L73.1955 38.984H70.4445L65.1063 25.7859ZM80.0729 30.5018C80.0729 24.8689 84.2321 21.7576 88.5224 21.7576C92.9763 21.7576 95.7601 23.9846 95.8583 29.8468H85.1491C85.2474 35.1523 87.2451 36.5933 90.5856 36.5933C92.5833 36.5933 94.1226 36.0038 95.3343 35.3816V36.4623C94.1881 37.7068 91.7318 39.4098 88.4896 39.4098C82.8567 39.3443 80.0729 36.0038 80.0729 30.5018ZM85.1491 28.6023L90.6839 28.3076C90.6839 24.4104 90.1599 22.9694 88.2276 22.9694C86.5901 22.9694 85.2801 24.5414 85.1491 28.6023ZM104.373 24.2466C105.29 23.2641 107.157 21.6594 109.318 21.6594C110.694 21.6594 111.84 22.7729 111.84 24.1811C111.84 25.5894 110.727 26.7029 109.318 26.7029C108.303 26.7029 107.386 26.0806 107.026 25.1964C106.83 24.8361 106.404 24.7379 106.109 24.7379C105.52 24.7379 104.832 25.1636 104.406 25.5566V36.0365C104.406 37.543 104.537 37.7068 105.52 37.8705L106.6 38.0998V38.984H97.2666V38.0998L98.1181 37.8705C99.1988 37.5758 99.3298 37.412 99.3298 36.0365V25.9824C99.3298 24.6069 99.1661 24.5086 98.2491 23.8864L97.1683 23.1659V22.5109L103.98 21.7249L104.341 21.9869L104.275 24.2139L104.373 24.2466ZM112.823 38.0998L113.674 37.8705C114.755 37.5758 114.886 37.412 114.886 36.0365V25.9824C114.886 24.6069 114.722 24.5086 113.805 23.8864L112.724 23.1659V22.5109L119.536 21.7249L119.897 21.9541L119.831 24.0174H119.962C121.665 22.8056 123.794 21.7249 126.152 21.7249C128.903 21.7249 130.377 23.1331 130.377 26.0479V36.0038C130.377 37.412 130.508 37.5758 131.556 37.8378L132.407 38.067V38.9513H123.401V38.067L124.187 37.8705C125.169 37.6085 125.268 37.5103 125.268 36.0038V27.3251C125.268 25.3601 124.547 24.7379 123.041 24.7379C121.894 24.7379 120.748 24.9999 120.028 25.1636V36.0365C120.028 37.5758 120.126 37.6413 121.108 37.9033L121.894 38.0998V38.984H112.888V38.0998H112.823ZM133.029 30.6001C133.029 24.4104 137.418 21.7576 141.774 21.7576C146.457 21.7576 150.55 24.5741 150.55 30.4363C150.55 36.626 146.228 39.3443 141.774 39.3443C137.09 39.3443 133.029 36.5278 133.029 30.6001ZM145.114 30.7638C145.114 24.2466 143.87 23.0021 141.643 23.0021C139.612 23.0021 138.4 24.4759 138.4 30.0433C138.4 36.6588 139.481 38.0998 141.839 38.0998C143.771 38.0998 145.114 36.9535 145.114 30.7638ZM153.334 34.8903V24.0829H151.304V23.2969C153.825 22.3144 155.758 20.4476 156.675 17.8604H158.509V22.1834H162.799L162.373 24.0829H158.509V34.5628C158.509 36.1675 159 36.8225 160.605 36.8225C161.391 36.8225 162.34 36.6588 162.93 36.5278V37.4448C162.144 38.1653 160.539 39.3443 157.821 39.3443C154.906 39.3443 153.334 38.067 153.334 34.8903ZM163.585 30.5018C163.585 24.8689 167.744 21.7576 172.034 21.7576C176.488 21.7576 179.272 23.9846 179.37 29.8468H168.694C168.792 35.1523 170.79 36.5933 174.13 36.5933C176.128 36.5933 177.667 36.0038 178.879 35.3816V36.4623C177.733 37.7068 175.277 39.4098 172.034 39.4098C166.369 39.3443 163.585 36.0038 163.585 30.5018ZM168.661 28.6023L174.196 28.3076C174.196 24.4104 173.672 22.9694 171.74 22.9694C170.102 22.9694 168.792 24.5414 168.661 28.6023Z" fill="#AEAEAE"></path><path d="M10.6768 19.0717C10.6768 19.4647 10.644 20.1197 10.251 20.5455C9.82529 20.9385 9.1703 20.9712 8.7773 20.9712H4.58532C3.37358 20.9712 2.65309 20.9712 2.16184 21.0367C1.89984 21.0695 1.57234 21.2005 1.40859 21.266C1.34309 21.2987 1.34309 21.266 1.37584 21.2332L10.9388 11.5065C10.9715 11.4738 11.0043 11.4738 10.9715 11.5393C10.906 11.703 10.775 12.0305 10.7423 12.2925C10.6768 12.7838 10.6768 13.5043 10.6768 14.716V19.0717ZM19.5847 48.4811C18.4712 47.7606 17.8817 46.8108 17.6525 46.2213C17.4232 45.6646 17.2922 45.0423 17.2922 44.4201C17.2922 41.7018 19.5192 39.4749 22.2702 39.4749C23.089 39.4749 23.744 40.1299 23.744 40.9486C23.744 41.5053 23.4492 41.9638 22.9907 42.2258C22.827 42.3241 22.5977 42.3896 22.434 42.4223C22.2702 42.4551 21.648 42.5206 21.3532 42.7826C21.0257 43.0446 20.7637 43.4703 20.7637 43.9288C20.7637 44.4201 20.9602 44.8786 21.2877 45.2061C21.8772 45.7956 22.6632 46.1231 23.5147 46.1231C25.7417 46.1231 27.5429 44.3218 27.5429 42.0948C27.5429 40.0971 26.2002 38.3286 24.4317 37.5426C24.1697 37.4116 23.744 37.3134 23.351 37.2151C22.8597 37.1169 22.4012 37.0514 22.3685 37.0514C20.993 36.8876 17.5542 35.8069 17.325 32.7612C17.325 32.7612 16.3098 37.3461 14.2793 38.5906C14.0828 38.6889 13.8208 38.7871 13.526 38.8526C13.2313 38.9181 12.9038 38.9509 12.8055 38.9509C9.49779 39.1474 5.99357 38.0994 3.57008 35.6104C3.57008 35.6104 1.93259 34.2676 1.0811 30.5014C0.884597 29.5844 0.4916 27.9469 0.262351 26.4077C0.164102 25.8509 0.131352 25.4252 0.0986023 25.0322C0.0986023 23.4275 1.0811 22.3467 2.32559 22.183C2.35834 22.183 2.45659 22.183 2.52209 22.183C3.27533 22.183 9.00655 22.183 9.00655 22.183C10.1528 22.183 10.8078 21.8882 11.2335 21.4952C11.7903 20.9712 11.9213 20.218 11.9213 19.3337C11.9213 19.3337 11.9213 13.3733 11.9213 12.62C11.9213 12.5873 11.9213 12.4563 11.9213 12.4235C12.085 11.2118 13.1658 10.1965 14.7705 10.1965C14.7705 10.1965 15.2618 10.1965 15.5565 10.1965C15.884 10.1965 16.277 10.2293 16.6372 10.262C16.8992 10.2948 17.1285 10.3603 17.5215 10.4585C19.5192 10.9498 19.945 12.9803 19.945 12.9803C19.945 12.9803 23.7112 13.6353 25.6107 13.9628C27.4119 14.2903 31.8659 14.585 32.7174 19.0717C34.7151 29.7482 33.5034 40.0971 33.4051 40.0971C31.9969 50.184 23.613 49.6928 23.613 49.6928C21.8117 49.6928 20.469 49.1033 19.5847 48.4811ZM27.1172 27.0299C26.0364 26.9317 25.1194 27.3574 24.7919 28.1762C24.7264 28.3399 24.6609 28.5364 24.6937 28.6347C24.7264 28.7329 24.7919 28.7657 24.8574 28.7984C25.2504 28.9949 25.9054 29.0932 26.8552 29.1914C27.8049 29.2897 28.4599 29.3552 28.8857 29.2897C28.9512 29.2897 29.0167 29.2569 29.0822 29.1587C29.1477 29.0604 29.1149 28.8639 29.1149 28.7002C28.9839 27.7832 28.1979 27.1609 27.1172 27.0299Z" fill="#AEAEAE"></path></svg>