<svg xmlns="http://www.w3.org/2000/svg" width="180" height="60" viewBox="0 0 180 60" fill="none"><path d="M38.0125 16.3919C35.1078 15.0329 32.0018 14.0451 28.7547 13.4827C28.3559 14.2037 27.89 15.1735 27.5688 15.9449C24.117 15.4258 20.6969 15.4258 17.3086 15.9449C16.9874 15.1735 16.5109 14.2037 16.1086 13.4827C12.8579 14.0451 9.74842 15.0365 6.84364 16.3991C0.98469 25.2528 -0.603576 33.8865 0.190559 42.3976C4.07653 45.2996 7.8425 47.0624 11.5449 48.216C12.4591 46.9579 13.2744 45.6204 13.9767 44.2109C12.639 43.7027 11.3578 43.0754 10.1473 42.3472C10.4684 42.1093 10.7826 41.8605 11.0861 41.6046C18.4698 45.0581 26.4923 45.0581 33.7878 41.6046C34.0948 41.8605 34.4089 42.1093 34.7266 42.3472C33.5124 43.079 32.2277 43.7062 30.8901 44.2146C31.5924 45.6204 32.4042 46.9615 33.3219 48.2196C37.0278 47.066 40.7973 45.3032 44.6833 42.3976C45.6151 32.5311 43.0915 23.9766 38.0125 16.3919ZM14.9826 37.1634C12.7661 37.1634 10.9484 35.0941 10.9484 32.5743C10.9484 30.0545 12.7273 27.9817 14.9826 27.9817C17.238 27.9817 19.0557 30.0509 19.0169 32.5743C19.0204 35.0941 17.238 37.1634 14.9826 37.1634ZM29.8912 37.1634C27.6747 37.1634 25.857 35.0941 25.857 32.5743C25.857 30.0545 27.6358 27.9817 29.8912 27.9817C32.1465 27.9817 33.9642 30.0509 33.9254 32.5743C33.9254 35.0941 32.1465 37.1634 29.8912 37.1634Z" fill="#AEAEAE"></path><path d="M60.3008 22.3444H69.936C72.2587 22.3444 74.221 22.7157 75.8308 23.4547C77.4363 24.1936 78.6401 25.2247 79.4379 26.5441C80.2352 27.8634 80.6375 29.3739 80.6375 31.0754C80.6375 32.7409 80.221 34.2513 79.3881 35.6032C78.5552 36.9586 77.2881 38.0293 75.5835 38.8187C73.879 39.6082 71.7679 40.0047 69.2446 40.0047H60.3008V22.3444ZM69.1456 35.5167C70.7092 35.5167 71.913 35.1165 72.7527 34.3198C73.593 33.5195 74.0131 32.4309 74.0131 31.0502C74.0131 29.7704 73.6385 28.7502 72.8905 27.986C72.1425 27.2217 71.0094 26.8361 69.495 26.8361H66.4808V35.5167H69.1456Z" fill="#AEAEAE"></path><path d="M95.0627 39.9832C93.7285 39.6299 92.5247 39.118 91.4556 38.4439V34.255C92.2639 34.8931 93.3471 35.4194 94.706 35.834C96.0648 36.2449 97.3781 36.4504 98.6483 36.4504C99.2413 36.4504 99.6897 36.3711 99.993 36.2125C100.297 36.0539 100.449 35.8628 100.449 35.6429C100.449 35.3906 100.368 35.1815 100.202 35.012C100.035 34.8426 99.7143 34.702 99.2382 34.583L96.2733 33.9017C94.5755 33.498 93.3717 32.9392 92.6557 32.2219C91.9391 31.5081 91.5823 30.5708 91.5823 29.41C91.5823 28.4331 91.893 27.586 92.5216 26.8614C93.146 26.1368 94.0354 25.578 95.1894 25.1851C96.344 24.7885 97.6918 24.5903 99.2413 24.5903C100.625 24.5903 101.892 24.7417 103.047 25.0445C104.201 25.3473 105.153 25.733 105.912 26.2053V30.1671C105.136 29.6948 104.246 29.3235 103.23 29.0423C102.217 28.7648 101.176 28.6278 100.102 28.6278C98.553 28.6278 97.7804 28.8981 97.7804 29.4352C97.7804 29.6876 97.9003 29.8751 98.1402 30.0012C98.3801 30.1274 98.8212 30.2572 99.4603 30.3942L101.931 30.8484C103.544 31.1332 104.747 31.6343 105.538 32.348C106.329 33.0618 106.724 34.1181 106.724 35.5167C106.724 37.0488 106.071 38.2637 104.762 39.1649C103.452 40.0661 101.595 40.5167 99.1884 40.5167C97.773 40.5131 96.3969 40.3365 95.0627 39.9832Z" fill="#AEAEAE"></path><path d="M112.556 39.4531C111.141 38.7465 110.071 37.7876 109.358 36.5764C108.645 35.3651 108.285 34.0025 108.285 32.4884C108.285 30.9744 108.656 29.6189 109.397 28.4257C110.138 27.2325 111.225 26.2952 112.658 25.6139C114.091 24.9326 115.803 24.5937 117.797 24.5937C120.268 24.5937 122.318 25.1236 123.949 26.1834V30.8014C123.374 30.3976 122.703 30.0695 121.937 29.8172C121.171 29.5649 120.352 29.4387 119.477 29.4387C117.945 29.4387 116.749 29.7235 115.884 30.2966C115.019 30.8698 114.586 31.616 114.586 32.5425C114.586 33.4509 115.005 34.1936 115.845 34.7776C116.686 35.3579 117.903 35.6499 119.502 35.6499C120.324 35.6499 121.136 35.5273 121.937 35.2858C122.735 35.0407 123.423 34.7415 123.998 34.3882V38.8547C122.188 39.965 120.088 40.5201 117.698 40.5201C115.687 40.5129 113.971 40.1596 112.556 39.4531Z" fill="#AEAEAE"></path><path d="M130.111 39.4534C128.685 38.7468 127.599 37.7807 126.85 36.5514C126.102 35.3221 125.724 33.9523 125.724 32.4382C125.724 30.9242 126.098 29.5723 126.85 28.3864C127.602 27.2003 128.682 26.2702 130.101 25.5961C131.516 24.922 133.207 24.5868 135.165 24.5868C137.124 24.5868 138.815 24.922 140.23 25.5961C141.646 26.2702 142.726 27.1931 143.467 28.3719C144.208 29.5507 144.579 30.9026 144.579 32.4347C144.579 33.9487 144.208 35.3186 143.467 36.5478C142.726 37.7771 141.642 38.7432 140.216 39.4498C138.79 40.1563 137.107 40.5096 135.162 40.5096C133.217 40.5096 131.534 40.1599 130.111 39.4534ZM137.618 34.9761C138.219 34.3633 138.522 33.5522 138.522 32.5428C138.522 31.5334 138.222 30.7295 137.618 30.1347C137.019 29.5363 136.199 29.2371 135.162 29.2371C134.107 29.2371 133.28 29.5363 132.677 30.1347C132.077 30.7331 131.777 31.5334 131.777 32.5428C131.777 33.5522 132.077 34.3633 132.677 34.9761C133.277 35.5889 134.107 35.899 135.162 35.899C136.199 35.8953 137.019 35.5889 137.618 34.9761Z" fill="#AEAEAE"></path><path d="M159.423 25.524V30.9746C158.795 30.5528 157.983 30.3437 156.978 30.3437C155.661 30.3437 154.644 30.7511 153.938 31.5658C153.229 32.3806 152.876 33.6494 152.876 35.3654V40.0085H146.823V25.2464H152.753V29.94C153.081 28.2241 153.614 26.9588 154.348 26.1404C155.079 25.3257 156.024 24.9184 157.175 24.9184C158.047 24.9184 158.795 25.1203 159.423 25.524Z" fill="#AEAEAE"></path><path d="M179.535 21.8396V40.0083H173.481V36.7027C172.97 37.9464 172.193 38.8945 171.149 39.5433C170.104 40.1886 168.812 40.5131 167.28 40.5131C165.911 40.5131 164.718 40.1742 163.698 39.4929C162.678 38.8115 161.891 37.8779 161.337 36.6919C160.786 35.5058 160.507 34.1648 160.507 32.6652C160.49 31.1187 160.783 29.7308 161.386 28.5015C161.986 27.2722 162.837 26.3134 163.931 25.6248C165.025 24.9363 166.274 24.5902 167.676 24.5902C170.559 24.5902 172.493 25.8699 173.481 28.4258V21.8396H179.535ZM172.578 34.875C173.196 34.2622 173.503 33.4655 173.503 32.4922C173.503 31.5513 173.203 30.7834 172.603 30.1958C172.003 29.6083 171.18 29.3126 170.146 29.3126C169.126 29.3126 168.311 29.6118 167.7 30.2102C167.09 30.8087 166.786 31.5837 166.786 32.5426C166.786 33.5015 167.09 34.2838 167.7 34.8894C168.311 35.495 169.116 35.7978 170.122 35.7978C171.141 35.7943 171.96 35.4878 172.578 34.875Z" fill="#AEAEAE"></path><path d="M85.7383 26.8178C87.4047 26.8178 88.7562 25.5783 88.7562 24.0492C88.7562 22.5202 87.4047 21.2807 85.7383 21.2807C84.0713 21.2807 82.7205 22.5202 82.7205 24.0492C82.7205 25.5783 84.0713 26.8178 85.7383 26.8178Z" fill="#AEAEAE"></path><path d="M82.7179 28.725C84.5669 29.5397 86.8614 29.5757 88.7529 28.725V40.0876H82.7179V28.725Z" fill="#AEAEAE"></path></svg>