<svg xmlns="http://www.w3.org/2000/svg" width="180" height="60" viewBox="0 0 180 60" fill="none"><path d="M19.7178 6.53891H0V53.6946L19.7178 6.53891Z" fill="#AEAEAE"></path><path d="M33.5912 6.53891H53.2833V53.6946L33.5912 6.53891Z" fill="#AEAEAE"></path><path d="M26.6546 23.9189L39.2047 53.6946H30.9707L27.2198 44.2147H18.0353L26.6546 23.9189Z" fill="#AEAEAE"></path><path d="M85.4509 36.5269L87.776 43.1937C87.853 43.3607 87.9686 43.4378 88.1742 43.4378H92.6444C92.8885 43.4378 92.927 43.3222 92.8885 43.0781L83.6526 17.4257C83.614 17.2202 83.5755 17.1816 83.37 17.1816H77.8207C77.6666 17.1816 77.5767 17.2972 77.5767 17.4642C77.4996 18.813 77.384 19.2241 77.217 19.6223L68.9831 43.0396C68.9445 43.3222 69.0345 43.4378 69.2657 43.4378H73.2606C73.5047 43.4378 73.6203 43.3607 73.7102 43.1166L75.9068 36.5269H85.4509ZM77.1785 32.1723C78.3859 28.5242 79.9788 23.8484 80.6211 21.1766H80.6596C81.456 23.9769 83.3314 29.5261 84.1792 32.1723H77.1785Z" fill="#AEAEAE"></path><path d="M104.762 43.836C107.164 43.836 109.72 43.3992 112.315 42.2817C112.521 42.2046 112.559 42.1147 112.559 41.922C112.482 41.2027 112.392 40.1622 112.392 39.3658V15.2163C112.392 15.0622 112.392 14.9851 112.2 14.9851H107.845C107.678 14.9851 107.601 15.0622 107.601 15.2677V23.4502C106.92 23.3732 106.445 23.3346 105.88 23.3346C98.8531 23.3346 94.537 27.9718 94.537 33.7651C94.537 40.4833 98.9687 43.836 104.762 43.836V43.836ZM107.601 39.3658C106.882 39.597 106.085 39.6869 105.276 39.6869C102.09 39.6869 99.4826 37.8885 99.4826 33.5211C99.4826 29.6546 102.167 27.3681 105.725 27.3681C106.445 27.3681 107.074 27.4452 107.601 27.6507V39.3658Z" fill="#AEAEAE"></path><path d="M126.451 23.3346C120.452 23.3346 116.74 27.9333 116.74 33.611C116.74 38.685 119.694 43.836 126.361 43.836C132 43.836 135.957 39.6869 135.957 33.4825C135.957 28.0104 132.604 23.3346 126.451 23.3346ZM126.207 27.3681C129.598 27.3681 131.037 30.284 131.037 33.611C131.037 37.7215 128.917 39.764 126.451 39.764C123.407 39.764 121.608 37.2077 121.608 33.5211C121.608 29.7317 123.522 27.3681 126.207 27.3681V27.3681Z" fill="#AEAEAE"></path><path d="M140.459 14.9851C140.292 14.9851 140.176 15.0622 140.176 15.2677V42.6028C140.176 42.7184 140.292 42.924 140.459 42.9625C142.373 43.5534 144.377 43.836 146.445 43.836C152.367 43.836 158.121 40.1622 158.121 32.7632C158.121 27.4066 154.448 23.3346 148.693 23.3346C147.37 23.3346 146.137 23.5402 145.058 23.8998L145.006 15.3062C145.006 15.0236 144.929 14.9851 144.646 14.9851H140.459ZM153.202 33.2513C153.202 37.683 150.17 39.764 146.894 39.764C146.214 39.764 145.61 39.7254 145.058 39.5584V27.8948C145.687 27.6507 146.445 27.4452 147.845 27.4452C151.005 27.4452 153.202 29.4491 153.202 33.2513Z" fill="#AEAEAE"></path><path d="M174.373 34.69C176.325 34.69 177.931 34.6515 178.483 34.523C178.689 34.4845 178.766 34.4074 178.804 34.2404C178.92 33.8037 178.971 32.8917 178.971 31.7741C178.971 27.9718 176.685 23.3346 170.776 23.3346C164.739 23.3346 161.386 28.2544 161.386 33.8037C161.386 38.7235 163.981 43.836 171.251 43.836C173.975 43.836 175.734 43.3992 177.25 42.6799C177.404 42.6028 177.481 42.4744 177.481 42.2432V38.9162C177.481 38.7235 177.366 38.685 177.25 38.762C175.734 39.4043 174.09 39.7254 172.292 39.7254C168.22 39.7254 166.37 37.4775 166.254 34.69H174.373ZM166.254 31.2474C166.576 29.2949 167.809 27.1754 170.57 27.1754C173.615 27.1754 174.411 29.7317 174.411 30.8878C174.411 30.9263 174.411 31.0933 174.411 31.2089C174.244 31.2474 173.73 31.2474 172.215 31.2474H166.254Z" fill="#AEAEAE"></path></svg>