<svg xmlns="http://www.w3.org/2000/svg" width="180" height="60" viewBox="0 0 180 60" fill="none"><path fill-rule="evenodd" clip-rule="evenodd" d="M158.951 31.4416C158.951 21.4895 154.131 13.6367 144.917 13.6367C135.665 13.6367 130.067 21.4895 130.067 31.3638C130.067 43.0653 136.676 48.9744 146.161 48.9744C150.788 48.9744 154.286 47.9247 156.93 46.4475V38.6724C154.286 39.9942 151.254 40.8105 147.405 40.8105C143.634 40.8105 140.291 39.4888 139.864 34.9015H158.874C158.874 34.3961 158.951 32.3746 158.951 31.4416ZM139.747 27.7484C139.747 23.3555 142.429 21.5284 144.878 21.5284C147.25 21.5284 149.777 23.3555 149.777 27.7484H139.747Z" fill="#AEAEAE"></path><path fill-rule="evenodd" clip-rule="evenodd" d="M115.061 13.6367C111.251 13.6367 108.802 15.4249 107.441 16.6689L106.936 14.2587H98.3833V59.5873L108.102 57.5269L108.141 46.5252C109.541 47.5359 111.601 48.9743 115.022 48.9743C121.981 48.9743 128.317 43.3763 128.317 31.0528C128.278 19.779 121.864 13.6367 115.061 13.6367ZM112.728 40.4218C110.435 40.4218 109.074 39.6054 108.141 38.5946L108.102 24.1719C109.113 23.0445 110.512 22.267 112.728 22.267C116.266 22.267 118.715 26.2323 118.715 31.3249C118.715 36.5342 116.305 40.4218 112.728 40.4218Z" fill="#AEAEAE"></path><path fill-rule="evenodd" clip-rule="evenodd" d="M85.01 11.3429L94.7677 9.24368V1.35199L85.01 3.41238V11.3429Z" fill="#AEAEAE"></path><path d="M94.7677 14.2975H85.01V48.3134H94.7677V14.2975Z" fill="#AEAEAE"></path><path fill-rule="evenodd" clip-rule="evenodd" d="M74.5521 17.1743L73.9301 14.2975H65.5331V48.3134H75.2519V25.2603C77.5455 22.2669 81.4331 22.8112 82.6382 23.2388V14.2975C81.3942 13.831 76.8458 12.9757 74.5521 17.1743Z" fill="#AEAEAE"></path><path fill-rule="evenodd" clip-rule="evenodd" d="M55.1148 5.86149L45.6292 7.883L45.5903 39.0221C45.5903 44.7757 49.9055 49.0131 55.659 49.0131C58.8468 49.0131 61.1793 48.4299 62.4622 47.7302V39.8385C61.2182 40.3439 55.0759 42.1321 55.0759 36.3786V22.5779H62.4622V14.2974H55.0759L55.1148 5.86149Z" fill="#AEAEAE"></path><path fill-rule="evenodd" clip-rule="evenodd" d="M28.8355 24.1719C28.8355 22.6558 30.0795 22.0726 32.1399 22.0726C35.0944 22.0726 38.8264 22.9668 41.7809 24.5607V15.425C38.5543 14.1421 35.3665 13.6367 32.1399 13.6367C24.2482 13.6367 19 17.7575 19 24.6384C19 35.368 33.7726 33.6575 33.7726 38.2836C33.7726 40.0719 32.2176 40.655 30.0406 40.655C26.8139 40.655 22.6932 39.3333 19.4276 37.545V46.7973C23.043 48.3523 26.6973 49.0132 30.0406 49.0132C38.1267 49.0132 43.6858 45.0091 43.6858 38.0504C43.6469 26.4655 28.8355 28.5259 28.8355 24.1719Z" fill="#AEAEAE"></path></svg>