<svg xmlns="http://www.w3.org/2000/svg" width="180" height="60" viewBox="0 0 180 60" fill="none"><path fill-rule="evenodd" clip-rule="evenodd" d="M55.9996 52.0001C58.3952 50.5132 60.4087 48.6987 62.1122 46.8093C63.3318 49.3 65.7793 51.0002 68.3747 51.0002C70.3747 51.0002 72.3747 50.0002 73.7497 48.1252C74.2497 49.8752 75.4997 51.0002 77.6247 51.0002C79.2194 51.0002 82.6958 49.3727 85.848 46.9612L85.4996 48.7501C85.3746 49.2501 85.3746 49.6251 85.3746 49.8751C85.4996 50.6251 85.9996 51.0001 86.7496 51.0001C88.2496 51.0001 90.3746 49.6251 90.8746 47.3751L91.6246 44.2501C92.4996 40.2501 98.3746 34.2501 99.9996 34.2501C100.125 34.2501 100.375 34.3751 100.375 34.6251C100.424 35.022 100.139 35.7734 99.7224 36.8713C99.0892 38.5397 98.1523 41.0085 97.6246 44.2501C97.3746 45.2501 97.3746 46.2501 97.4996 47.0001C97.7496 49.3751 99.1246 51.0001 101.75 51.0001C103.996 51.0001 108.866 49.0826 112.28 45.2475C112.537 47.3292 112.978 49.0998 113.625 50.2502C113.875 50.7502 114.5 50.8752 115.125 50.8752C115.875 50.8752 116.875 50.6252 118 50.0002C120.625 48.6252 124 45.3752 127.25 40.6252C127.75 40.7502 128.125 40.7502 128.5 40.7502C129.797 40.7502 131.246 40.2924 132.592 39.4824C132.033 41.1716 131.815 42.8967 132 44.5001C132.5 48.2501 135.625 51.1251 139 51.1251C140.875 51.1251 142.875 50.0001 144.25 48.2501C144.75 50.6251 146.25 53.1251 150 54.6251C150.25 54.7501 150.5 54.7501 150.75 54.7501C151.5 54.7501 152 54.2501 151.875 53.6251C151.875 53.3751 151.75 53.0001 151.375 52.7501C150.5 52.0001 149.5 50.6251 149.25 48.5001C149.125 47.5001 149.125 46.2501 149.75 45.0001C150.5 41.6251 150.625 40.6251 150.625 40.2501C150.5 39.3751 149.875 39.0001 149.125 39.0001C147.625 39.0001 145.5 40.5001 145 42.6251C144.125 45.8751 141.875 48.0001 140.375 48.0001C138.5 48.0001 137.5 46.0001 137.25 43.8751C136.625 38.6251 139.875 32.2501 144.75 32.2501C146.125 32.2501 147.75 32.7501 147.875 34.2501C148.028 35.6326 147.191 35.9769 146.551 36.2398C146.15 36.4048 145.827 36.5378 145.875 36.8751C146 37.8751 147.625 38.1251 148.75 38.1251C149.75 38.1251 153 37.3751 152.5 33.7501C152.125 30.8751 149 29.5001 145.5 29.5001C141.322 29.5001 137.766 31.6157 135.344 34.543C135.009 34.7407 134.656 35.094 134.25 35.5002C133.5 36.3752 132 37.2502 130.125 37.2502C129.875 37.2502 129.375 37.1252 129.375 37.1252C130.625 34.7502 131.5 32.2502 131.5 30.1252C131.5 26.6252 129.375 24.8752 127 24.8752C124 24.8752 120.875 27.5002 120.875 32.7502C120.875 35.8752 122.125 38.3752 124.25 39.7502C121.75 43.7502 118.375 47.1252 117.875 47.1252C117.702 47.1252 117.649 46.9464 117.591 46.7535C117.565 46.667 117.538 46.5776 117.5 46.5002C117.125 45.1252 116.75 42.3752 116.75 40.7502C116.75 37.7502 117.25 34.7502 118.375 31.6252C118.5 31.2502 118.625 30.8752 118.625 30.6252C118.625 29.7502 118 29.3752 117.25 29.3752C115.75 29.3752 113.375 31.1252 112.75 33.0002C112.25 34.7502 112 37.2502 112 40.2502C112 40.8004 112.009 41.3461 112.027 41.8835C109.043 45.9048 105.362 47.2501 104.25 47.2501C102.875 47.2501 102.625 46.0001 102.875 45.5001C103.75 41.8751 104.875 37.7501 105.875 34.8751C106.375 33.5001 106.625 32.2501 106.5 31.5001C106.25 30.1251 105.375 29.5001 104.125 29.5001C101.125 29.5001 96.3746 32.5001 93.2496 36.6251L94.2496 32.1251C94.3746 31.6251 94.3746 31.2501 94.3746 31.0001C94.2496 30.1251 93.7496 29.7501 92.9996 29.7501C89.4996 29.7501 88.8746 31.5001 88.4996 33.2501C88.4272 33.6845 87.4324 38.8147 86.6079 43.0559C83.9405 45.5039 80.9517 47.1252 80.1247 47.1252C79.1247 47.1252 78.7497 46.3752 78.7497 45.7502C78.7497 45.3185 78.9982 44.1415 79.2329 43.0294C79.406 42.2094 79.5717 41.4246 79.6247 41.0002C79.7497 40.5002 79.7497 40.1252 79.7497 39.8752C79.6247 39.1252 78.9997 38.7502 78.2497 38.7502C76.7497 38.7502 74.6247 40.2502 74.1247 42.3752C73.3747 45.6252 71.1247 47.7502 69.6247 47.7502C67.7497 47.7502 66.7497 45.7502 66.4997 43.7502C65.8747 39.2502 68.7497 32.0002 73.9997 32.0002C75.4997 32.0002 76.9997 32.5002 77.1247 34.0002C77.2761 35.4382 76.5109 35.7764 75.9114 36.0414C75.5207 36.2141 75.2004 36.3557 75.2497 36.7502C75.3747 37.7502 76.9997 38.0002 77.9997 38.0002C79.1247 38.0002 82.2497 37.2502 81.7497 33.6252C81.3747 30.7502 78.3747 29.2502 74.7497 29.2502C66.3424 29.2502 60.7477 37.5658 61.3524 44.1578C59.2174 46.6562 57.0843 48.1586 53.2496 50.1251C51.1246 51.2501 48.6246 51.8751 46.3746 51.8751C39.3746 51.8751 35.9996 45.5001 35.3746 40.0001C33.6246 26.0001 46.1246 6.62512 54.7496 6.62512C56.7496 6.62512 58.4996 8.37512 58.8746 11.1251C59.3746 15.3751 59.2496 18.3751 54.8746 22.0001C54.3746 22.3751 54.2496 23.0001 54.4996 23.3751C54.8746 23.8751 56.1246 24.0001 58.4996 22.7501C63.2496 20.3751 64.8746 16.7501 64.3746 12.5001C63.8746 7.75012 59.7496 3.87512 54.2496 3.87512C51.4996 3.87512 48.6246 4.62512 45.9996 6.25012C34.6246 13.2501 27.2496 29.0001 28.6246 41.0001C29.1246 44.8751 30.7496 49.0001 33.7496 51.8751C35.7496 53.7501 39.3746 56.0001 43.7496 56.0001C48.4996 56.0001 52.4996 54.2501 55.9996 52.0001ZM126.25 35.5002C125 34.1252 124 32.0002 124 30.0002C124 28.8752 124.375 27.6252 125.25 27.6252C126 27.6252 127 28.7502 127 31.3752C127 32.7502 126.75 34.1252 126.25 35.5002Z" fill="#AEAEAE"></path></svg>