<svg xmlns="http://www.w3.org/2000/svg" width="180" height="60" viewBox="0 0 180 60" fill="none"><path d="M56.4174 43.3368L58.6014 38.2321C60.9927 40.003 64.1117 40.9403 67.2314 40.9403C69.5191 40.9403 70.9745 40.0552 70.9745 38.7011C70.9223 34.9505 57.1974 37.8675 57.093 28.4381C57.0408 23.6459 61.3043 19.9476 67.3358 19.9476C70.9223 19.9476 74.5104 20.8334 77.0575 22.8652L75.0166 28.0787C72.6731 26.5718 69.7785 25.5212 67.0234 25.5212C65.1518 25.5212 63.9036 26.4063 63.9036 27.5531C63.9558 31.2514 77.7859 29.2196 77.9418 38.2321C77.9418 43.1287 73.7819 46.5669 67.8548 46.5669C63.4883 46.5669 59.485 45.5252 56.4167 43.3368H56.4174ZM143.38 36.3837C142.829 37.3632 142.027 38.1784 141.056 38.7458C140.086 39.3131 138.982 39.6122 137.858 39.6123C134.355 39.6123 131.516 36.7669 131.516 33.2572C131.516 29.7475 134.355 26.9021 137.858 26.9021C138.982 26.9022 140.086 27.2013 141.056 27.7686C142.027 28.336 142.829 29.1512 143.38 30.1307L149.452 26.7605C147.177 22.696 142.839 19.9476 137.858 19.9476C130.522 19.9476 124.575 25.906 124.575 33.2572C124.575 40.6077 130.522 46.5669 137.858 46.5669C142.839 46.5669 147.177 43.8184 149.452 39.754L143.38 36.3837ZM81.8817 46.0457H89.4724V8.8681H81.8825L81.8817 46.0457ZM153.285 8.8681V46.0457H160.875V34.9073L169.87 46.0457H179.572L168.134 32.8135L178.74 20.4665H169.454L160.875 30.7317V8.8681H153.285ZM112.858 20.468V23.4901C111.61 21.406 108.543 19.9476 105.319 19.9476C98.6646 19.9476 93.4138 25.8344 93.4138 33.2311C93.4138 40.6278 98.6646 46.5669 105.319 46.5669C108.543 46.5669 111.61 45.1084 112.858 43.0243V46.0457H120.448V20.468H112.858ZM112.858 36.4351C111.766 38.2582 109.479 39.6115 106.931 39.6115C103.428 39.6115 100.588 36.7669 100.588 33.2572C100.588 29.7475 103.428 26.9021 106.931 26.9021C109.479 26.9021 111.766 28.3084 112.858 30.1829V36.4351Z" fill="#AEAEAE"></path><path d="M16.3313 8.04669C13.8715 8.04669 11.8776 10.045 11.8776 12.5093C11.8771 13.0948 11.9918 13.6746 12.2153 14.2158C12.4388 14.7569 12.7667 15.2487 13.1803 15.6631C13.5938 16.0775 14.085 16.4063 14.6256 16.6309C15.1663 16.8555 15.7459 16.9714 16.3313 16.972H20.7858V12.5093C20.7868 11.3269 20.3181 10.1925 19.4827 9.35558C18.6474 8.51869 17.5138 8.04788 16.3313 8.04669V8.04669ZM16.3313 19.9471H4.45407C1.9942 19.9471 0.000366211 21.9454 0.000366211 24.4105C0.000366211 26.8748 1.9942 28.8731 4.45407 28.8731H16.3321C18.7912 28.8731 20.7858 26.8748 20.7858 24.4105C20.7858 21.9454 18.7912 19.9471 16.3313 19.9471" fill="#AEAEAE"></path><path d="M44.5405 24.4105C44.5405 21.9454 42.5459 19.9471 40.086 19.9471C37.6262 19.9471 35.6323 21.9454 35.6323 24.4105V28.8731H40.086C41.2685 28.8719 42.4021 28.4011 43.2374 27.5642C44.0728 26.7274 44.5415 25.5929 44.5405 24.4105V24.4105ZM32.6632 24.4105V12.5093C32.6642 11.3269 32.1955 10.1925 31.3601 9.35558C30.5248 8.51869 29.3912 8.04788 28.2088 8.04669C25.7489 8.04669 23.7551 10.045 23.7551 12.5093V24.4097C23.7551 26.8756 25.7489 28.8739 28.2088 28.8739C29.3912 28.8727 30.5248 28.4019 31.3601 27.565C32.1955 26.7281 32.6642 25.5937 32.6632 24.4112" fill="#AEAEAE"></path><path d="M28.2089 52.6748C29.3913 52.6736 30.5249 52.2028 31.3602 51.3659C32.1956 50.529 32.6643 49.3946 32.6633 48.2121C32.6643 47.0297 32.1956 45.8952 31.3602 45.0584C30.5249 44.2215 29.3913 43.7507 28.2089 43.7495H23.7552V48.2121C23.7552 50.6765 25.749 52.6748 28.2089 52.6748ZM28.2089 40.7744H40.0869C42.546 40.7744 44.5406 38.7761 44.5406 36.311C44.5416 35.1285 44.0729 33.9941 43.2375 33.1572C42.4022 32.3203 41.2686 31.8495 40.0861 31.8483H28.2089C25.749 31.8483 23.7552 33.8466 23.7552 36.311C23.7546 36.8964 23.8693 37.4763 24.0928 38.0174C24.3163 38.5585 24.6442 39.0503 25.0578 39.4647C25.4713 39.8791 25.9625 40.208 26.5031 40.4326C27.0438 40.6571 27.6234 40.773 28.2089 40.7736" fill="#AEAEAE"></path><path d="M2.24723e-06 36.311C-0.00058556 36.8964 0.114147 37.4763 0.337648 38.0174C0.561149 38.5585 0.889043 39.0503 1.30261 39.4647C1.71617 39.8791 2.20731 40.208 2.74797 40.4326C3.28864 40.6571 3.86825 40.773 4.4537 40.7736C5.63615 40.7724 6.76971 40.3016 7.60506 39.4647C8.44041 38.6279 8.90914 37.4934 8.90815 36.311V31.8483H4.4537C1.99384 31.8483 2.24723e-06 33.8466 2.24723e-06 36.311V36.311ZM11.8773 36.311V48.2114C11.8773 50.6765 13.8711 52.6748 16.331 52.6748C17.5134 52.6736 18.647 52.2028 19.4823 51.3659C20.3177 50.529 20.7864 49.3946 20.7854 48.2121V36.311C20.786 35.7255 20.6713 35.1456 20.4477 34.6044C20.2242 34.0632 19.8962 33.5714 19.4826 33.157C19.0689 32.7426 18.5777 32.4137 18.0369 32.1892C17.4962 31.9646 16.9165 31.8488 16.331 31.8483C13.8711 31.8483 11.8773 33.8466 11.8773 36.311Z" fill="#AEAEAE"></path></svg>