<svg xmlns="http://www.w3.org/2000/svg" width="60" height="60" viewBox="0 0 60 60" fill="none"><rect width="60" height="60" rx="5" fill="#285BD4"></rect><path fill-rule="evenodd" clip-rule="evenodd" d="M24.5825 17.5H35.4188C39.6733 17.5 42.5 20.5366 42.5 24.895V35.105C42.5 39.4588 39.6649 42.5 35.4188 42.5H24.5825C20.3278 42.5 17.5 39.4631 17.5 35.105V24.895C17.5 20.5369 20.3278 17.5 24.5825 17.5ZM35.4188 19.375H24.5825C21.3944 19.375 19.375 21.5437 19.375 24.895V35.105C19.375 38.4563 21.3944 40.625 24.5825 40.625H35.4188C38.5988 40.625 40.625 38.4515 40.625 35.105V24.895C40.625 21.5433 38.6066 19.375 35.4188 19.375ZM30 23.955C30.4746 23.955 30.8669 24.3077 30.9289 24.7653L30.9375 24.8925V32.8365L34.0207 29.7414C34.3528 29.4078 34.8736 29.3765 35.2412 29.648L35.3465 29.7386C35.68 30.0707 35.7114 30.5914 35.4399 30.959L35.3493 31.0644L30.6643 35.7694C30.3312 36.1039 29.8085 36.1343 29.441 35.8606L29.437 35.8572C29.4022 35.831 29.3693 35.8025 29.3385 35.7718L29.3357 35.7694L24.6507 31.0644C24.2853 30.6975 24.2866 30.1039 24.6535 29.7386C24.987 29.4064 25.5079 29.3773 25.8744 29.6504L25.9793 29.7414L29.0625 32.8382V24.8925C29.0625 24.3747 29.4822 23.955 30 23.955Z" fill="white"></path></svg>